<?xml version="1.0" encoding="utf-8"?>
<!-- Generator: Adobe Illustrator 28.0.0, SVG Export Plug-In . SVG Version: 6.00 Build 0)  -->
<svg version="1.1" id="Layer_1" xmlns="http://www.w3.org/2000/svg" xmlns:xlink="http://www.w3.org/1999/xlink" x="0px" y="0px"
	 viewBox="0 0 1020 1020" style="enable-background:new 0 0 1020 1020;" xml:space="preserve">
<style type="text/css">
	.st0{fill:#F55A5A;}
</style>
<path class="st0" d="M665.1,31.27v374.11C617.15,348.9,548,315.42,457.9,320.54c-180.54,10.27-288.01,147.3-288.23,340.28
	c-0.2,176.58,107.96,352.14,288.23,340.28c95.92-6.31,162.44-34.98,207.21-80.35v73.06h126.32V31.27H665.1z M434.7,912.91
	c-89.75-10.83-130.57-78.76-140.25-119.46c-12.57-34.79-16.23-75.99-16.41-122.39c-0.06-13.51-0.34-25.71,4.37-36.97
	c43.67,32.15,105.84,63.69,159.7,81.25c84.65,28.64,129.26,59.04,130.43,112.32C573.66,878.41,504.57,915.52,434.7,912.91z
	 M610.08,693.82c-43.47-32.41-105.45-64.33-159.2-82.21c-84.47-29.15-128.89-59.81-129.74-113.1
	c-0.81-50.75,68.52-87.45,138.37-84.42c89.69,11.37,130.08,79.54,139.52,120.29c12.36,34.86,15.76,76.09,15.65,122.48
	C614.66,670.39,614.87,682.59,610.08,693.82z"/>
</svg>
