<?xml version="1.0" encoding="utf-8"?>
<!-- Generator: Adobe Illustrator 28.0.0, SVG Export Plug-In . SVG Version: 6.00 Build 0)  -->
<svg version="1.1" id="Layer_1" xmlns="http://www.w3.org/2000/svg" xmlns:xlink="http://www.w3.org/1999/xlink" x="0px" y="0px"
	 viewBox="0 0 1020 1020" style="enable-background:new 0 0 1020 1020;" xml:space="preserve">
<style type="text/css">
	.st0{display:none;fill:none;stroke:#231F20;stroke-width:15;stroke-miterlimit:10;}
	.st1{fill:#F55A5A;}
</style>
<path id="big_box_00000104702182280785865810000017104420344968096147_" class="st0" d="M649.5,200.4H340.7
	c-58.5,0-106.3,47.9-106.3,106.3v343.8c0,58.5,47.9,106.3,106.3,106.3h308.7c118.8,0,133.3-126.4,138.2-162.9V307.6
	C787.7,249.1,746,200.4,649.5,200.4z"/>
<path class="st1" d="M782,40.5c-0.1,0-0.1,0-0.2,0H234.1c-109.3,0-197.8,88.6-197.8,197.8v565.4C36.3,909.4,122,995,227.6,995h507.9
	c125.2-6.7,228.6-113.5,233.6-233.6V227.9c0-0.1,0-0.3,0-0.4C983.3,145.3,908,48,782,40.5z M938.3,768.8
	c-31.5,75.3-103,166.5-205.3,179.9H215.1C153.7,944.2,83.4,886.1,78,813.9V223.3c4.2-60.8,65.6-138.5,139.8-142.6l563,0
	c91.7-0.2,159.9,64.3,157.5,142.6V768.8L938.3,768.8z"/>
<path class="st1" d="M677.2,408.9c-36.1-1.6-72,17.3-71.6,43.5c0.4,27.4,23.4,43.2,67.1,58.3c27.8,9.2,59.9,25.7,82.4,42.3
	c2.5-5.8,2.4-12.1,2.4-19c0-23.9-1.7-45.1-8.1-63.1C744.5,449.9,723.6,414.8,677.2,408.9z"/>
<path class="st1" d="M829.1,92.7H304.5c-94.4,0-171.6,77.2-171.6,171.6v404.8c0,94.4,77.2,171.6,171.6,171.6h524.6
	c94.4,0,171.6-77.2,171.6-171.6V264.3C1000.6,169.9,923.4,92.7,829.1,92.7z M841.3,712.5H776v-37.6c-23.2,23.4-57.6,38.1-107.2,41.4
	c-93.3,6.1-149.2-84.3-149.1-175.2c0.1-99.4,55.7-170,149.1-175.2c46.6-2.6,82.4,14.6,107.2,43.7V216.8h65.4L841.3,712.5
	L841.3,712.5z"/>
<path class="st1" d="M673.7,559.7c-27.9-9-60-25.3-82.6-41.8c-2.4,5.8-2.3,12.1-2.3,19c0.1,23.9,2,45.1,8.5,63
	c5,21,26.1,55.9,72.6,61.5c36.1,1.3,71.9-17.8,71.3-43.9C740.5,590.1,717.5,574.4,673.7,559.7z"/>
</svg>
