<?xml version="1.0" encoding="utf-8"?>
<!-- Generator: Adobe Illustrator 28.0.0, SVG Export Plug-In . SVG Version: 6.00 Build 0)  -->
<svg version="1.1" id="Layer_1" xmlns="http://www.w3.org/2000/svg" xmlns:xlink="http://www.w3.org/1999/xlink" x="0px" y="0px"
	 viewBox="0 0 1020 879.8" style="enable-background:new 0 0 1020 879.8;" xml:space="preserve">
<style type="text/css">
	.st0{display:none;fill:none;stroke:#231F20;stroke-width:15;stroke-miterlimit:10;}
	.st1{fill:#F55C48;}
</style>
<path id="big_box_00000104702182280785865810000017104420344968096147_" class="st0" d="M649.5,60.2H340.7
	c-58.5,0-106.3,47.9-106.3,106.3v343.8c0,58.5,47.9,106.3,106.3,106.3h308.7c118.8,0,133.3-126.4,138.2-162.9V167.4
	C787.7,108.9,746,60.2,649.5,60.2z"/>
<path class="st1" d="M615.8,358.6c-50.8-2.3-101.3,24.3-100.8,61.2c0.6,38.6,32.9,60.8,94.4,82c39.1,12.9,84.3,36.2,116,59.5
	c3.5-8.2,3.4-17,3.4-26.7c0-33.6-2.4-63.5-11.4-88.8C710.5,416.3,681.1,366.9,615.8,358.6z"/>
<path class="st1" d="M809.2,15.9H210.8C103.1,15.9,15,104,15,211.7v461.8c0,107.7,88.1,195.8,195.8,195.8h598.5
	c107.7,0,195.8-88.1,195.8-195.8V211.7C1004.9,104,916.8,15.9,809.2,15.9z M846.7,785.8h-91.9v-52.9
	c-32.6,32.9-81.1,53.6-150.9,58.3c-131.3,8.6-210-118.6-209.8-246.5C394.3,404.7,472.5,305.4,604,298c65.6-3.7,116,20.5,150.9,61.5
	V88.2h92L846.7,785.8L846.7,785.8z"/>
<path class="st1" d="M610.9,570.8c-39.3-12.7-84.4-35.6-116.2-58.8c-3.4,8.2-3.2,17-3.2,26.7c0.1,33.6,2.8,63.5,12,88.7
	c7,29.6,36.7,78.7,102.2,86.5c50.8,1.8,101.2-25,100.3-61.8C704.9,613.5,672.5,591.5,610.9,570.8z"/>
</svg>
