<?xml version="1.0" encoding="utf-8"?>
<!-- Generator: Adobe Illustrator 28.0.0, SVG Export Plug-In . SVG Version: 6.00 Build 0)  -->
<svg version="1.1" id="Layer_1" xmlns="http://www.w3.org/2000/svg" xmlns:xlink="http://www.w3.org/1999/xlink" x="0px" y="0px"
	 viewBox="0 0 1020 1020" style="enable-background:new 0 0 1020 1020;" xml:space="preserve">
<style type="text/css">
	.st0{display:none;fill:none;stroke:#231F20;stroke-width:15;stroke-miterlimit:10;}
	.st1{fill:#2AC6FF;}
</style>
<path id="big_box_00000104702182280785865810000017104420344968096147_" class="st0" d="M649.5,200.4H340.7
	c-58.5,0-106.3,47.9-106.3,106.3v343.8c0,58.5,47.9,106.3,106.3,106.3h308.7c118.8,0,133.3-126.4,138.2-162.9V307.6
	C787.7,249.1,746,200.4,649.5,200.4z"/>
<path class="st1" d="M788.3,7.8c-0.1,0-0.1,0-0.2,0H211.7C96.7,7.8,3.5,101,3.5,215.9v595c0,111.2,90.2,201.3,201.3,201.3h534.5
	c131.8-7.1,240.6-119.4,245.8-245.8V205c0-0.1,0-0.3,0-0.4C1000.1,118,920.9,15.7,788.3,7.8z M952.8,774.2
	c-33.1,79.2-108.4,175.2-216.1,189.3h-545c-64.6-4.7-138.6-65.9-144.3-141.9V200.1c4.4-64,69-145.8,147.1-150.1H787
	c96.5-0.2,168.3,67.7,165.7,150.1V774.2L952.8,774.2z"/>
<path class="st1" d="M678,395.5c-38-1.7-75.8,18.2-75.3,45.8c0.4,28.8,24.6,45.5,70.6,61.4c29.3,9.7,63,27,86.7,44.5
	c2.6-6.1,2.5-12.7,2.5-20c0-25.2-1.8-47.5-8.5-66.4C748.8,438.6,726.8,401.7,678,395.5z"/>
<path class="st1" d="M837.9,62.7H285.8c-99.3,0-180.6,81.2-180.6,180.6v426c0,99.3,81.2,180.6,180.6,180.6h552.1
	c99.3,0,180.6-81.2,180.6-180.6v-426C1018.3,143.9,937.1,62.7,837.9,62.7z M850.7,714.9H782v-39.6c-24.4,24.6-60.6,40.1-112.8,43.6
	c-98.2,6.4-157-88.7-156.9-184.4c0.1-104.6,58.6-178.9,156.9-184.4c49-2.7,86.7,15.4,112.8,46V193.3h68.8L850.7,714.9L850.7,714.9z"
	/>
<path class="st1" d="M674.3,554.1c-29.4-9.5-63.1-26.6-86.9-44c-2.5,6.1-2.4,12.7-2.4,20c0.1,25.2,2.1,47.5,8.9,66.3
	c5.3,22.1,27.5,58.8,76.4,64.7c38,1.4,75.7-18.7,75-46.2C744.6,586.1,720.4,569.6,674.3,554.1z"/>
</svg>
